<svg width="30" height="189" viewBox="0 0 30 189" fill="none" xmlns="http://www.w3.org/2000/svg">
<path d="M13.5858 188.414C14.3668 189.195 15.6332 189.195 16.4142 188.414L29.1421 175.686C29.9232 174.905 29.9232 173.639 29.1421 172.858C28.3611 172.077 27.0948 172.077 26.3137 172.858L15 184.172L3.68629 172.858C2.90524 172.077 1.63891 172.077 0.857864 172.858C0.0768152 173.639 0.0768153 174.905 0.857864 175.686L13.5858 188.414ZM17 187C17 185.712 17 184.418 17 183.119L13 183.119C13 184.418 13 185.712 13 187L17 187ZM17 175.324C17 172.742 17 170.142 17 167.53L13 167.53C13 170.142 13 172.742 13 175.324L17 175.324ZM17 159.736C17 157.145 17 154.546 17 151.941L13 151.941C13 154.546 13 157.145 13 159.736L17 159.736ZM17 144.147C17 141.55 17 138.95 17 136.353L13 136.353C13 138.95 13 141.55 13 144.147L17 144.147ZM17 128.559C17 125.954 17 123.355 17 120.765L13 120.765C13 123.355 13 125.954 13 128.559L17 128.559ZM17 112.971C17 110.358 17 107.759 17 105.177L13 105.177C13 107.759 13 110.358 13 112.971L17 112.971ZM17 97.3835C17 94.7627 17 92.1639 17 89.5912L13 89.5912C13 92.1639 13 94.7627 13 97.3835L17 97.3835ZM17 81.801C17 79.1709 17 76.5739 17 74.0149L13 74.0149C13 76.5739 13 79.1709 13 81.801L17 81.801ZM17 66.2224C17 63.5688 17 60.9644 17 58.4151L13 58.4151C13 60.9644 13 63.5688 13 66.2224L17 66.2224ZM17 50.6131C17 47.9423 17 45.3454 17 42.8302L13 42.8302C13 45.3454 13 47.9423 13 50.6131L17 50.6131ZM17 35.0386C17 32.3098 17 29.7043 17 27.2345L13 27.2345C13 29.7043 13 32.3098 13 35.0386L17 35.0386ZM17 19.432C17 16.5543 17 13.945 17 11.6341L13 11.6341C13 13.945 13 16.5543 13 19.432L17 19.432ZM17 3.84708C17 1.93336 17 0.627189 17 -8.74231e-08L13 8.74224e-08C13 0.627189 13 1.93336 13 3.84708L17 3.84708Z" fill="#D9D9D9"/>
</svg>
