<svg width="462" height="460" viewBox="0 0 462 460" fill="none" xmlns="http://www.w3.org/2000/svg">
<path d="M0.279437 7.3619C-0.103434 7.75993 -0.0911453 8.39298 0.306885 8.77585L6.79316 15.0151C7.19119 15.398 7.82424 15.3857 8.20711 14.9876C8.58998 14.5896 8.57769 13.9566 8.17966 13.5737L2.41408 8.0277L7.96008 2.26212C8.34295 1.86409 8.33066 1.23105 7.93263 0.848177C7.5346 0.465306 6.90156 0.477594 6.51868 0.875625L0.279437 7.3619ZM1.01954 9.05496C17.4423 8.73616 32.9776 15.4077 48.1248 27.4655C63.2802 39.5299 77.9888 56.9416 92.7264 77.9832C122.218 120.09 151.636 176.437 184.932 233.029C218.195 289.564 255.293 346.271 300.057 388.846C344.838 431.437 397.348 459.937 461.405 459.937L461.405 457.937C398.009 457.937 345.969 429.752 301.435 387.397C256.885 345.025 219.904 288.525 186.656 232.015C153.441 175.561 123.915 119.026 94.3646 76.8358C79.5812 55.729 64.7439 38.1388 49.3704 25.9008C33.9885 13.6562 18.0117 6.72473 0.980726 7.05534L1.01954 9.05496Z" fill="black"/>
</svg>
