<svg width="232" height="283" viewBox="0 0 232 283" fill="none" xmlns="http://www.w3.org/2000/svg">
<path d="M1.20674 8.70421C0.804673 8.32559 0.785672 7.69271 1.1643 7.29064L7.33441 0.738558C7.71304 0.33649 8.34592 0.317488 8.74799 0.696117C9.15005 1.07475 9.16906 1.70762 8.79043 2.10969L3.30589 7.93376L9.12996 13.4183C9.53202 13.7969 9.55103 14.4298 9.1724 14.8319C8.79377 15.234 8.16089 15.253 7.75882 14.8743L1.20674 8.70421ZM75.0633 44.2997L75.9157 43.7768L75.0633 44.2997ZM1.89231 7.9762C1.8623 6.97666 1.86287 6.97664 1.86362 6.97662C1.86413 6.9766 1.86508 6.97657 1.86609 6.97655C1.86811 6.97649 1.8709 6.97641 1.87444 6.97631C1.88151 6.97612 1.89161 6.97586 1.90469 6.97555C1.93085 6.97492 1.96895 6.97409 2.01868 6.97321C2.11814 6.97145 2.26417 6.9695 2.45441 6.9686C2.83489 6.96681 3.39233 6.96923 4.10794 6.98589C5.53902 7.01919 7.60353 7.10942 10.1512 7.33675C15.2446 7.79124 22.2792 8.79463 30.0486 10.9918C45.5767 15.3831 64.1345 24.5725 75.9157 43.7768L74.2109 44.8227C62.7886 26.2032 44.7609 17.2308 29.5044 12.9163C21.8815 10.7606 14.974 9.77504 9.9734 9.32883C7.47403 9.10581 5.45356 9.01775 4.0614 8.98535C3.36539 8.96915 2.82665 8.96687 2.46385 8.96858C2.28246 8.96944 2.14508 8.97129 2.05404 8.9729C2.00852 8.9737 1.97459 8.97445 1.95253 8.97498C1.94151 8.97524 1.93345 8.97545 1.92841 8.97559C1.92588 8.97565 1.92411 8.9757 1.92309 8.97573C1.92259 8.97575 1.92239 8.97575 1.92214 8.97576C1.92213 8.97576 1.92232 8.97575 1.89231 7.9762ZM75.9157 43.7768C88.0468 63.5515 100.216 87.8934 112.545 113.351C124.882 138.825 137.378 165.417 150.188 189.759C162.999 214.105 176.091 236.136 189.596 252.489C203.126 268.871 216.926 279.375 231.115 281.007L230.886 282.993C215.899 281.27 201.669 270.248 188.054 253.762C174.414 237.247 161.246 215.068 148.418 190.691C135.588 166.31 123.067 139.666 110.745 114.223C98.4147 88.7621 86.2839 64.5027 74.2109 44.8227L75.9157 43.7768Z" fill="black"/>
</svg>
