<svg width="169" height="44" viewBox="0 0 169 44" fill="none" xmlns="http://www.w3.org/2000/svg">
<path d="M166.691 43.7229C167.242 43.7495 167.711 43.3239 167.738 42.7723L168.172 33.7828C168.198 33.2311 167.773 32.7623 167.221 32.7357C166.67 32.709 166.201 33.1346 166.174 33.6863L165.788 41.677L157.797 41.291C157.246 41.2644 156.777 41.69 156.75 42.2416C156.724 42.7933 157.149 43.2621 157.701 43.2887L166.691 43.7229ZM167.479 42.0519C140.727 12.5843 115.058 -0.49676 87.9582 0.107895C60.9226 0.711116 32.7051 14.9367 0.834052 39.4931L2.05471 41.0774C33.8315 16.5936 61.6225 2.696 88.0028 2.1074C114.319 1.52023 139.473 14.1786 165.998 43.3962L167.479 42.0519Z" fill="black"/>
</svg>
