<svg width="292" height="793" viewBox="0 0 292 793" fill="none" xmlns="http://www.w3.org/2000/svg">
<path d="M1.26682 791.245C1.31902 791.795 1.80705 792.198 2.35687 792.146L11.3166 791.295C11.8664 791.243 12.2698 790.755 12.2176 790.205C12.1654 789.656 11.6773 789.252 11.1275 789.304L3.16334 790.061L2.40716 782.096C2.35496 781.547 1.86693 781.143 1.31712 781.195C0.767301 781.248 0.363916 781.736 0.416119 782.285L1.26682 791.245ZM94.2546 569.564L93.2644 569.424L94.2546 569.564ZM112.112 301.274L111.114 301.207L111.114 301.222L112.112 301.274ZM2.26235 791.151C3.03312 791.788 3.03359 791.787 3.03434 791.786C3.03496 791.785 3.03599 791.784 3.03723 791.783C3.03971 791.78 3.0433 791.775 3.048 791.77C3.0574 791.758 3.0712 791.741 3.08935 791.719C3.12566 791.675 3.17938 791.609 3.25001 791.522C3.39127 791.347 3.6002 791.088 3.8729 790.744C4.4183 790.057 5.21878 789.035 6.24313 787.687C8.29178 784.993 11.236 780.998 14.826 775.791C22.0057 765.377 31.7696 750.11 42.1185 730.683C62.8146 691.832 85.861 636.323 95.2448 569.703L93.2644 569.424C83.9214 635.753 60.9717 691.038 40.3533 729.743C30.045 749.094 20.3221 764.296 13.1794 774.656C9.60811 779.836 6.68216 783.805 4.65096 786.477C3.63537 787.813 2.8435 788.825 2.30653 789.501C2.03805 789.839 1.83329 790.093 1.69616 790.263C1.6276 790.347 1.57595 790.411 1.54168 790.452C1.52455 790.473 1.51177 790.489 1.50339 790.499C1.49921 790.504 1.49612 790.508 1.49415 790.51C1.49316 790.512 1.49252 790.512 1.49202 790.513C1.49165 790.513 1.49156 790.513 2.26235 791.151ZM95.2448 569.703C98.2674 548.245 102.734 481.119 106.443 419.423C108.299 388.56 109.965 359.036 111.168 337.228C111.77 326.324 112.256 317.349 112.591 311.099C112.758 307.975 112.888 305.532 112.976 303.869C113.021 303.038 113.054 302.403 113.077 301.975C113.088 301.761 113.096 301.599 113.102 301.49C113.105 301.436 113.107 301.395 113.109 301.367C113.109 301.354 113.11 301.343 113.11 301.337C113.11 301.333 113.111 301.331 113.111 301.329C113.111 301.327 113.111 301.326 112.112 301.274C111.114 301.222 111.114 301.222 111.113 301.224C111.113 301.226 111.113 301.228 111.113 301.232C111.113 301.239 111.112 301.249 111.111 301.263C111.11 301.29 111.108 301.331 111.105 301.385C111.099 301.493 111.091 301.655 111.079 301.869C111.057 302.297 111.023 302.933 110.979 303.764C110.891 305.425 110.761 307.868 110.594 310.992C110.259 317.241 109.773 326.215 109.172 337.118C107.969 358.924 106.302 388.445 104.447 419.303C100.735 481.047 96.2727 548.067 93.2644 569.424L95.2448 569.703ZM113.11 301.34C128.249 73.895 245.128 7.94865 291.616 2.49381L291.383 0.507404C243.677 6.10526 126.298 73.0888 111.114 301.207L113.11 301.34Z" fill="black"/>
</svg>
