<svg width="2028" height="420" viewBox="0 0 2028 420" fill="none" xmlns="http://www.w3.org/2000/svg">
<path d="M4.79656 0.0449849C4.26912 -0.118799 3.70877 0.176002 3.54498 0.703443L0.875969 9.29858C0.712185 9.82602 1.00699 10.3864 1.53443 10.5502C2.06187 10.7139 2.62222 10.4191 2.786 9.89169L5.15846 2.25157L12.7986 4.62403C13.326 4.78781 13.8864 4.49301 14.0502 3.96557C14.2139 3.43813 13.9191 2.87778 13.3917 2.714L4.79656 0.0449849ZM2026.18 94.9234C1941.5 214.907 1789.28 300.161 1604.33 352.726C1419.4 405.284 1201.87 425.122 986.737 414.376C771.604 403.631 558.919 362.303 383.674 292.571C208.403 222.828 70.7242 124.729 5.385 0.5344L3.615 1.4656C69.2758 126.271 207.472 224.61 382.935 294.429C558.424 364.259 771.333 405.619 986.638 416.374C1201.94 427.128 1419.7 407.279 1604.87 354.649C1790.03 302.027 1942.75 216.593 2027.82 96.0766L2026.18 94.9234Z" fill="black"/>
</svg>
