<svg width="1494" height="1054" viewBox="0 0 1494 1054" fill="none" xmlns="http://www.w3.org/2000/svg">
<path d="M1422.5 245.507L1421.52 245.321L1422.5 245.507ZM1493.71 8.2071C1494.1 7.81658 1494.1 7.18341 1493.71 6.79289L1487.34 0.428958C1486.95 0.0384359 1486.32 0.0384388 1485.93 0.428965C1485.54 0.819491 1485.54 1.45266 1485.93 1.84318L1491.59 7.50001L1485.93 13.1569C1485.54 13.5474 1485.54 14.1806 1485.93 14.5711C1486.32 14.9616 1486.95 14.9616 1487.34 14.5711L1493.71 8.2071ZM0.281304 747.702C45.0008 793.925 140.941 866.797 263.504 929.833C386.073 992.873 535.357 1046.12 686.767 1053.01C838.203 1059.89 991.779 1020.39 1122.82 897.925C1253.83 775.479 1362.21 570.19 1423.48 245.693L1421.52 245.321C1360.29 569.574 1252.05 774.409 1121.45 896.463C990.877 1018.5 837.859 1057.87 686.858 1051.01C535.831 1044.14 386.834 991.015 264.418 928.055C141.996 865.091 46.2492 792.339 1.7187 746.311L0.281304 747.702ZM1493 6.5C1486.43 6.50003 1480.8 7.77688 1475.94 10.3634C1471.08 12.9501 1467.04 16.8165 1463.62 21.9116C1456.81 32.0636 1452.37 47.1795 1448.64 67.0666C1444.91 86.9755 1441.85 111.828 1437.87 141.526C1433.89 171.24 1428.97 205.846 1421.52 245.321L1423.48 245.693C1430.95 206.165 1435.87 171.518 1439.85 141.792C1443.84 112.051 1446.89 87.2772 1450.61 67.4354C1454.34 47.5716 1458.71 32.812 1465.28 23.0263C1468.56 18.1525 1472.36 14.5345 1476.88 12.129C1481.4 9.72323 1486.7 8.50003 1493 8.5V6.5Z" fill="black"/>
</svg>
