<svg width="84" height="270" viewBox="0 0 84 270" fill="none" xmlns="http://www.w3.org/2000/svg">
<path d="M0.438723 268.428C0.42646 268.98 0.864124 269.437 1.41627 269.45L10.4141 269.649C10.9662 269.662 11.4237 269.224 11.436 268.672C11.4483 268.12 11.0106 267.662 10.4585 267.65L2.46043 267.472L2.63807 259.474C2.65033 258.922 2.21267 258.465 1.66052 258.452C1.10837 258.44 0.650825 258.878 0.638562 259.43L0.438723 268.428ZM2.12971 269.173C18.4024 253.607 51.3797 223.882 70.0318 179.274C88.7114 134.6 92.9885 75.0996 52.106 0.0715707L50.3498 1.02852C90.95 75.5386 86.6257 134.403 68.1866 178.502C49.7198 222.667 17.0611 252.122 0.747245 267.727L2.12971 269.173Z" fill="black"/>
</svg>
